
 
http://www.imdb.com/title/tt1351685/



The ancient war between humans and a race of giants is reignited when Jack, a young farmhand fighting for a kingdom and the love of a princess, opens a gateway between the two worlds. 



Director:
 Bryan Singer 

Writers:
 Darren Lemke (screenplay), Christopher McQuarrie (screenplay)

Stars:
 Nicholas Hoult, Ewan McGregor, Stanley Tucci 

Genres:
  Adventure |  Fantasy 

Country:
 USA 

Language:
 English 



Format                                   : AVI
Format/Info                              : Audio Video Interleave
File size                                : 1.74 GiB
Duration                                 : 1h 54mn
Overall bit rate                         : 2 173 Kbps
Writing application                      : VirtualDubMod 1.5.10.3 | www.virtualdub-fr.org || (build 2550/release)
Writing library                          : VirtualDubMod build 2550/release

Video
ID                                       : 0
Format                                   : MPEG-4 Visual
Format profile                           : Advanced Simple@L5
Format settings, BVOP                    : 3
Format settings, QPel                    : No
Format settings, GMC                     : No warppoints
Format settings, Matrix                  : Default (MPEG)
Codec ID                                 : XVID
Codec ID/Hint                            : XviD
Duration                                 : 1h 54mn
Bit rate                                 : 1 716 Kbps
Width                                    : 720 pixels
Height                                   : 304 pixels
Display aspect ratio                     : 2.35:1
Frame rate                               : 23.976 fps
Color space                              : YUV
Chroma subsampling                       : 4:2:0
Bit depth                                : 8 bits
Scan type                                : Progressive
Compression mode                         : Lossy
Bits/(Pixel*Frame)                       : 0.327
Stream size                              : 1.37 GiB (79%)
Writing library                          : XviD 1.2.1 (UTC 2008-12-04)

Audio
ID                                       : 1
Format                                   : AC-3
Format/Info                              : Audio Coding 3
Mode extension                           : CM (complete main)
Format settings, Endianness              : Big
Codec ID                                 : 2000
Duration                                 : 1h 54mn
Bit rate mode                            : Constant
Bit rate                                 : 448 Kbps
Channel(s)                               : 6 channels
Channel positions                        : Front: L C R, Side: L R, LFE
Sampling rate                            : 48.0 KHz
Bit depth                                : 16 bits
Compression mode                         : Lossy
Stream size                              : 366 MiB (21%)
Alignment                                : Split accross interleaves
Interleave, duration                     : 42 ms (1.00 video frame)
Interleave, preload duration             : 500 ms





screens


    	http://addpix.net/viewer.php?file=75651845072127387983.jpg
    	http://addpix.net/viewer.php?file=53420470521393379092.jpg
    	http://addpix.net/viewer.php?file=59220082713804634586.jpg
    	http://addpix.net/viewer.php?file=29518135560748225994.jpg
    	http://addpix.net/viewer.php?file=09149409320283098429.jpg